<svg xmlns="http://www.w3.org/2000/svg" xmlns:xlink="http://www.w3.org/1999/xlink" width="2560" zoomAndPan="magnify" viewBox="0 0 1920 749.999995" height="1000" preserveAspectRatio="xMidYMid meet" version="1.2"><defs><clipPath id="2be9e7ef98"><path d="M 1600.839844 323.09375 L 1768.429688 323.09375 L 1768.429688 490.683594 L 1600.839844 490.683594 Z M 1600.839844 323.09375 "/></clipPath></defs><g id="d2606b837f"><g style="fill:#0a8935;fill-opacity:1;"><g transform="translate(1461.482043, 597.651513)"><path style="stroke:none" d="M 105.203125 -169.375 C 108.285156 -154.726562 113.488281 -141.523438 120.8125 -129.765625 C 128.132812 -118.015625 137 -107.898438 147.40625 -99.421875 C 157.8125 -90.941406 169.375 -84.390625 182.09375 -79.765625 C 194.8125 -75.140625 208.488281 -72.828125 223.125 -72.828125 C 252.03125 -72.828125 277.082031 -81.398438 298.28125 -98.546875 C 319.476562 -115.703125 333.929688 -139.3125 341.640625 -169.375 L 425.453125 -169.375 C 421.984375 -143.164062 414.367188 -119.078125 402.609375 -97.109375 C 390.859375 -75.148438 376.023438 -56.171875 358.109375 -40.171875 C 340.191406 -24.179688 319.765625 -11.753906 296.828125 -2.890625 C 273.898438 5.972656 249.523438 10.40625 223.703125 10.40625 C 197.890625 10.40625 173.421875 5.878906 150.296875 -3.171875 C 127.171875 -12.234375 106.550781 -24.859375 88.4375 -41.046875 C 70.332031 -57.234375 55.398438 -76.304688 43.640625 -98.265625 C 31.890625 -120.234375 24.472656 -143.9375 21.390625 -169.375 Z M 21.390625 -216.203125 C 24.472656 -241.628906 31.890625 -265.328125 43.640625 -287.296875 C 55.398438 -309.265625 70.332031 -328.335938 88.4375 -344.515625 C 106.550781 -360.703125 127.171875 -373.320312 150.296875 -382.375 C 173.421875 -391.4375 197.890625 -395.96875 223.703125 -395.96875 C 249.523438 -395.96875 273.898438 -391.535156 296.828125 -382.671875 C 319.765625 -373.804688 340.191406 -361.378906 358.109375 -345.390625 C 376.023438 -329.398438 390.859375 -310.421875 402.609375 -288.453125 C 414.367188 -266.484375 421.984375 -242.398438 425.453125 -216.203125 L 341.640625 -216.203125 C 333.929688 -246.253906 319.476562 -269.851562 298.28125 -287 C 277.082031 -304.15625 252.03125 -312.734375 223.125 -312.734375 C 208.488281 -312.734375 194.8125 -310.421875 182.09375 -305.796875 C 169.375 -301.171875 157.8125 -294.617188 147.40625 -286.140625 C 137 -277.660156 128.132812 -267.445312 120.8125 -255.5 C 113.488281 -243.550781 108.285156 -230.453125 105.203125 -216.203125 Z M 21.390625 -216.203125 "/></g></g><g clip-rule="nonzero" clip-path="url(#2be9e7ef98)"><path style=" stroke:none;fill-rule:nonzero;fill:#7ed957;fill-opacity:1;" d="M 1768.429688 406.890625 C 1768.429688 408.261719 1768.394531 409.632812 1768.328125 411 C 1768.261719 412.371094 1768.160156 413.738281 1768.023438 415.101562 C 1767.890625 416.46875 1767.722656 417.828125 1767.519531 419.183594 C 1767.320312 420.542969 1767.085938 421.890625 1766.816406 423.238281 C 1766.550781 424.582031 1766.25 425.921875 1765.917969 427.25 C 1765.582031 428.582031 1765.21875 429.902344 1764.820312 431.214844 C 1764.421875 432.527344 1763.992188 433.828125 1763.53125 435.121094 C 1763.066406 436.410156 1762.574219 437.691406 1762.050781 438.957031 C 1761.523438 440.222656 1760.96875 441.476562 1760.382812 442.714844 C 1759.796875 443.957031 1759.179688 445.179688 1758.535156 446.390625 C 1757.886719 447.601562 1757.210938 448.792969 1756.507812 449.96875 C 1755.800781 451.144531 1755.066406 452.304688 1754.304688 453.445312 C 1753.542969 454.582031 1752.753906 455.703125 1751.9375 456.804688 C 1751.121094 457.90625 1750.277344 458.988281 1749.40625 460.046875 C 1748.539062 461.109375 1747.640625 462.148438 1746.722656 463.164062 C 1745.800781 464.179688 1744.855469 465.171875 1743.886719 466.140625 C 1742.914062 467.109375 1741.921875 468.054688 1740.90625 468.976562 C 1739.890625 469.898438 1738.851562 470.792969 1737.792969 471.664062 C 1736.730469 472.535156 1735.652344 473.378906 1734.550781 474.195312 C 1733.449219 475.011719 1732.328125 475.800781 1731.1875 476.5625 C 1730.046875 477.324219 1728.890625 478.058594 1727.710938 478.761719 C 1726.535156 479.46875 1725.34375 480.144531 1724.132812 480.789062 C 1722.925781 481.4375 1721.699219 482.054688 1720.460938 482.640625 C 1719.222656 483.226562 1717.96875 483.78125 1716.699219 484.304688 C 1715.433594 484.832031 1714.15625 485.324219 1712.863281 485.785156 C 1711.570312 486.246094 1710.269531 486.679688 1708.957031 487.074219 C 1707.644531 487.472656 1706.324219 487.839844 1704.996094 488.171875 C 1703.664062 488.507812 1702.328125 488.804688 1700.980469 489.074219 C 1699.636719 489.339844 1698.285156 489.574219 1696.929688 489.777344 C 1695.574219 489.980469 1694.210938 490.144531 1692.847656 490.28125 C 1691.480469 490.414062 1690.113281 490.515625 1688.746094 490.582031 C 1687.375 490.652344 1686.003906 490.683594 1684.632812 490.683594 C 1683.261719 490.683594 1681.890625 490.652344 1680.523438 490.582031 C 1679.152344 490.515625 1677.785156 490.414062 1676.421875 490.28125 C 1675.054688 490.144531 1673.695312 489.980469 1672.339844 489.777344 C 1670.980469 489.574219 1669.632812 489.339844 1668.285156 489.074219 C 1666.941406 488.804688 1665.605469 488.507812 1664.273438 488.171875 C 1662.941406 487.839844 1661.621094 487.472656 1660.308594 487.074219 C 1658.996094 486.679688 1657.695312 486.246094 1656.40625 485.785156 C 1655.113281 485.324219 1653.835938 484.832031 1652.566406 484.304688 C 1651.300781 483.78125 1650.046875 483.226562 1648.808594 482.640625 C 1647.566406 482.054688 1646.34375 481.4375 1645.132812 480.789062 C 1643.925781 480.144531 1642.730469 479.46875 1641.554688 478.761719 C 1640.378906 478.058594 1639.21875 477.324219 1638.082031 476.5625 C 1636.941406 475.800781 1635.820312 475.011719 1634.71875 474.195312 C 1633.617188 473.378906 1632.535156 472.535156 1631.476562 471.664062 C 1630.414062 470.792969 1629.378906 469.898438 1628.359375 468.976562 C 1627.34375 468.054688 1626.351562 467.109375 1625.382812 466.140625 C 1624.414062 465.171875 1623.46875 464.179688 1622.546875 463.164062 C 1621.625 462.148438 1620.730469 461.109375 1619.859375 460.046875 C 1618.988281 458.988281 1618.148438 457.90625 1617.328125 456.804688 C 1616.511719 455.703125 1615.722656 454.582031 1614.960938 453.445312 C 1614.199219 452.304688 1613.464844 451.144531 1612.761719 449.96875 C 1612.054688 448.792969 1611.378906 447.601562 1610.734375 446.390625 C 1610.085938 445.179688 1609.472656 443.957031 1608.882812 442.714844 C 1608.296875 441.476562 1607.742188 440.222656 1607.21875 438.957031 C 1606.691406 437.691406 1606.199219 436.410156 1605.738281 435.121094 C 1605.277344 433.828125 1604.847656 432.527344 1604.449219 431.214844 C 1604.050781 429.902344 1603.683594 428.582031 1603.351562 427.25 C 1603.015625 425.921875 1602.71875 424.582031 1602.449219 423.238281 C 1602.183594 421.890625 1601.949219 420.542969 1601.746094 419.183594 C 1601.546875 417.828125 1601.378906 416.46875 1601.242188 415.101562 C 1601.109375 413.738281 1601.007812 412.371094 1600.941406 411 C 1600.875 409.632812 1600.839844 408.261719 1600.839844 406.890625 C 1600.839844 405.519531 1600.875 404.148438 1600.941406 402.777344 C 1601.007812 401.410156 1601.109375 400.042969 1601.242188 398.675781 C 1601.378906 397.3125 1601.546875 395.953125 1601.746094 394.59375 C 1601.949219 393.238281 1602.183594 391.886719 1602.449219 390.542969 C 1602.71875 389.199219 1603.015625 387.859375 1603.351562 386.53125 C 1603.683594 385.199219 1604.050781 383.878906 1604.449219 382.566406 C 1604.847656 381.253906 1605.277344 379.953125 1605.738281 378.660156 C 1606.199219 377.371094 1606.691406 376.089844 1607.21875 374.824219 C 1607.742188 373.554688 1608.296875 372.304688 1608.882812 371.0625 C 1609.472656 369.824219 1610.085938 368.597656 1610.734375 367.390625 C 1611.378906 366.179688 1612.054688 364.988281 1612.761719 363.8125 C 1613.464844 362.632812 1614.199219 361.476562 1614.960938 360.335938 C 1615.722656 359.195312 1616.511719 358.074219 1617.328125 356.972656 C 1618.148438 355.871094 1618.988281 354.792969 1619.859375 353.730469 C 1620.730469 352.671875 1621.625 351.632812 1622.546875 350.617188 C 1623.46875 349.601562 1624.414062 348.609375 1625.382812 347.636719 C 1626.351562 346.667969 1627.34375 345.722656 1628.359375 344.800781 C 1629.378906 343.882812 1630.414062 342.984375 1631.476562 342.117188 C 1632.535156 341.246094 1633.617188 340.402344 1634.71875 339.585938 C 1635.820312 338.769531 1636.941406 337.980469 1638.082031 337.21875 C 1639.21875 336.457031 1640.378906 335.722656 1641.554688 335.015625 C 1642.730469 334.3125 1643.925781 333.636719 1645.132812 332.988281 C 1646.34375 332.34375 1647.566406 331.726562 1648.808594 331.140625 C 1650.046875 330.554688 1651.300781 330 1652.566406 329.472656 C 1653.835938 328.949219 1655.113281 328.457031 1656.40625 327.992188 C 1657.695312 327.53125 1658.996094 327.101562 1660.308594 326.703125 C 1661.621094 326.304688 1662.941406 325.941406 1664.273438 325.605469 C 1665.605469 325.273438 1666.941406 324.972656 1668.285156 324.707031 C 1669.632812 324.4375 1670.980469 324.203125 1672.339844 324.003906 C 1673.695312 323.800781 1675.054688 323.632812 1676.421875 323.5 C 1677.785156 323.363281 1679.152344 323.265625 1680.523438 323.195312 C 1681.890625 323.128906 1683.261719 323.09375 1684.632812 323.09375 C 1686.003906 323.09375 1687.375 323.128906 1688.746094 323.195312 C 1690.113281 323.265625 1691.480469 323.363281 1692.847656 323.5 C 1694.210938 323.632812 1695.574219 323.800781 1696.929688 324.003906 C 1698.285156 324.203125 1699.636719 324.4375 1700.980469 324.707031 C 1702.328125 324.972656 1703.664062 325.273438 1704.996094 325.605469 C 1706.324219 325.941406 1707.644531 326.304688 1708.957031 326.703125 C 1710.269531 327.101562 1711.570312 327.53125 1712.863281 327.992188 C 1714.15625 328.457031 1715.433594 328.949219 1716.699219 329.472656 C 1717.96875 330 1719.222656 330.554688 1720.460938 331.140625 C 1721.699219 331.726562 1722.925781 332.34375 1724.132812 332.988281 C 1725.34375 333.636719 1726.535156 334.3125 1727.710938 335.015625 C 1728.890625 335.722656 1730.046875 336.457031 1731.1875 337.21875 C 1732.328125 337.980469 1733.449219 338.769531 1734.550781 339.585938 C 1735.652344 340.402344 1736.730469 341.246094 1737.792969 342.117188 C 1738.851562 342.984375 1739.890625 343.882812 1740.90625 344.800781 C 1741.921875 345.722656 1742.914062 346.667969 1743.886719 347.636719 C 1744.855469 348.609375 1745.800781 349.601562 1746.722656 350.617188 C 1747.640625 351.632812 1748.539062 352.671875 1749.40625 353.730469 C 1750.277344 354.792969 1751.121094 355.871094 1751.9375 356.972656 C 1752.753906 358.074219 1753.542969 359.195312 1754.304688 360.335938 C 1755.066406 361.476562 1755.800781 362.632812 1756.507812 363.8125 C 1757.210938 364.988281 1757.886719 366.179688 1758.535156 367.390625 C 1759.179688 368.597656 1759.796875 369.824219 1760.382812 371.0625 C 1760.96875 372.304688 1761.523438 373.554688 1762.050781 374.824219 C 1762.574219 376.089844 1763.066406 377.371094 1763.53125 378.660156 C 1763.992188 379.953125 1764.421875 381.253906 1764.820312 382.566406 C 1765.21875 383.878906 1765.582031 385.199219 1765.917969 386.53125 C 1766.25 387.859375 1766.550781 389.199219 1766.816406 390.542969 C 1767.085938 391.886719 1767.320312 393.238281 1767.519531 394.59375 C 1767.722656 395.953125 1767.890625 397.3125 1768.023438 398.675781 C 1768.160156 400.042969 1768.261719 401.410156 1768.328125 402.777344 C 1768.394531 404.148438 1768.429688 405.519531 1768.429688 406.890625 Z M 1768.429688 406.890625 "/></g><g style="fill:#0a8935;fill-opacity:1;"><g transform="translate(21.274109, 585.821987)"><path style="stroke:none" d="M 234.890625 0 L 133.1875 0 L 133.1875 -396.953125 L 12.46875 -396.953125 L 12.46875 -488.796875 L 363.484375 -488.796875 L 363.484375 -396.953125 L 234.890625 -396.953125 Z M 234.890625 0 "/></g></g><g style="fill:#0a8935;fill-opacity:1;"><g transform="translate(328.335512, 585.821987)"><path style="stroke:none" d="M 270.3125 -118.75 L 344.453125 -61.671875 C 330.460938 -40.679688 310.125 -23.953125 283.4375 -11.484375 C 256.757812 0.984375 228.546875 7.21875 198.796875 7.21875 C 173.867188 7.21875 150.578125 2.734375 128.921875 -6.234375 C 107.273438 -15.203125 88.140625 -27.664062 71.515625 -43.625 C 54.890625 -59.59375 41.984375 -77.960938 32.796875 -98.734375 C 23.617188 -119.515625 19.03125 -141.71875 19.03125 -165.34375 C 19.03125 -197.269531 26.789062 -226.351562 42.3125 -252.59375 C 57.84375 -278.84375 78.617188 -299.726562 104.640625 -315.25 C 130.671875 -330.78125 159.429688 -338.546875 190.921875 -338.546875 C 218.484375 -338.546875 243.414062 -333.078125 265.71875 -322.140625 C 288.03125 -311.210938 307.054688 -296.890625 322.796875 -279.171875 C 338.546875 -261.460938 349.703125 -242.328125 356.265625 -221.765625 L 171.25 -89.234375 C 175.625 -87.484375 180.101562 -86.390625 184.6875 -85.953125 C 189.28125 -85.515625 193.984375 -85.296875 198.796875 -85.296875 C 212.796875 -85.296875 226.351562 -87.921875 239.46875 -93.171875 C 252.59375 -98.421875 262.875 -106.945312 270.3125 -118.75 Z M 113.5 -165.34375 C 113.5 -156.59375 114.375 -149.375 116.125 -143.6875 L 236.859375 -229.640625 C 230.296875 -234.453125 223.1875 -238.28125 215.53125 -241.125 C 207.875 -243.96875 199.671875 -245.390625 190.921875 -245.390625 C 169.492188 -245.390625 151.234375 -237.84375 136.140625 -222.75 C 121.046875 -207.65625 113.5 -188.519531 113.5 -165.34375 Z M 113.5 -165.34375 "/></g></g><g style="fill:#0a8935;fill-opacity:1;"><g transform="translate(703.632995, 585.821987)"><path style="stroke:none" d="M 152.21875 -116.78125 L 125.96875 -91.859375 L 125.96875 0 L 32.8125 0 L 32.8125 -488.796875 L 125.96875 -488.796875 L 125.96875 -199.453125 L 267.03125 -331.328125 L 382.515625 -331.328125 L 215.859375 -176.5 L 389.734375 0 L 270.96875 0 Z M 152.21875 -116.78125 "/></g></g><g style="fill:#0a8935;fill-opacity:1;"><g transform="translate(1089.428238, 585.821987)"><path style="stroke:none" d="M 366.765625 -165.34375 L 366.765625 0 L 274.25 0 L 274.25 -165.34375 C 274.25 -192.019531 267.578125 -212.03125 254.234375 -225.375 C 240.898438 -238.71875 224.609375 -245.390625 205.359375 -245.390625 C 184.804688 -245.390625 166.4375 -238.71875 150.25 -225.375 C 134.0625 -212.03125 125.96875 -192.019531 125.96875 -165.34375 L 125.96875 0 L 32.8125 0 L 32.8125 -331.328125 L 125.96875 -331.328125 L 125.96875 -308.375 C 135.15625 -318.875 148.273438 -326.523438 165.328125 -331.328125 C 182.390625 -336.140625 198.359375 -338.546875 213.234375 -338.546875 C 243.410156 -338.546875 270.085938 -330.78125 293.265625 -315.25 C 316.453125 -299.726562 334.5 -278.84375 347.40625 -252.59375 C 360.3125 -226.351562 366.765625 -197.269531 366.765625 -165.34375 Z M 366.765625 -165.34375 "/></g></g><g style="fill:#7ed957;fill-opacity:1;"><g transform="translate(856.415938, 223.349414)"><path style="stroke:none" d="M 11.109375 -116.625 L 58.390625 -116.625 C 66.847656 -116.625 74.753906 -115.160156 82.109375 -112.234375 C 89.460938 -109.316406 95.929688 -105.222656 101.515625 -99.953125 C 107.097656 -94.679688 111.476562 -88.523438 114.65625 -81.484375 C 117.84375 -74.441406 119.4375 -66.742188 119.4375 -58.390625 C 119.4375 -50.046875 117.84375 -42.320312 114.65625 -35.21875 C 111.476562 -28.125 107.097656 -21.941406 101.515625 -16.671875 C 95.929688 -11.398438 89.460938 -7.300781 82.109375 -4.375 C 74.753906 -1.457031 66.898438 0 58.546875 0 L 11.109375 0 Z M 35.375 -21.921875 L 58.546875 -21.921875 C 65.328125 -21.921875 71.429688 -23.507812 76.859375 -26.6875 C 82.285156 -29.875 86.585938 -34.207031 89.765625 -39.6875 C 92.953125 -45.164062 94.546875 -51.398438 94.546875 -58.390625 C 94.546875 -65.484375 92.953125 -71.742188 89.765625 -77.171875 C 86.585938 -82.597656 82.257812 -86.875 76.78125 -90 C 71.300781 -93.132812 65.171875 -94.703125 58.390625 -94.703125 L 35.375 -94.703125 Z M 35.375 -21.921875 "/></g></g><g style="fill:#7ed957;fill-opacity:1;"><g transform="translate(1032.202369, 223.349414)"><path style="stroke:none" d="M 47.59375 -20.1875 L 35.375 -20.1875 L 35.375 0 L 11.109375 0 L 11.109375 -116.625 L 51.65625 -116.625 C 58.550781 -116.625 64.921875 -115.445312 70.765625 -113.09375 C 76.609375 -110.75 81.71875 -107.460938 86.09375 -103.234375 C 90.476562 -99.015625 93.894531 -94.140625 96.34375 -88.609375 C 98.800781 -83.078125 100.03125 -77.128906 100.03125 -70.765625 C 100.03125 -60.328125 97.679688 -51.347656 92.984375 -43.828125 C 88.285156 -36.316406 81.867188 -30.679688 73.734375 -26.921875 L 98.9375 0 L 66.6875 0 Z M 35.375 -42.109375 L 45.40625 -42.109375 C 55 -42.109375 62.351562 -44.40625 67.46875 -49 C 72.582031 -53.59375 75.140625 -60.21875 75.140625 -68.875 C 75.140625 -73.675781 74.195312 -78.007812 72.3125 -81.875 C 70.4375 -85.738281 67.644531 -88.84375 63.9375 -91.1875 C 60.238281 -93.53125 55.625 -94.703125 50.09375 -94.703125 L 35.375 -94.703125 Z M 35.375 -42.109375 "/></g></g><g style="fill:#7ed957;fill-opacity:1;"><g transform="translate(1187.953169, 223.349414)"><path style="stroke:none" d="M 66.6875 2.03125 C 58.34375 2.03125 50.515625 0.46875 43.203125 -2.65625 C 35.898438 -5.789062 29.484375 -10.125 23.953125 -15.65625 C 18.421875 -21.1875 14.085938 -27.601562 10.953125 -34.90625 C 7.828125 -42.21875 6.265625 -50.046875 6.265625 -58.390625 C 6.265625 -66.742188 7.828125 -74.546875 10.953125 -81.796875 C 14.085938 -89.046875 18.421875 -95.4375 23.953125 -100.96875 C 29.484375 -106.5 35.875 -110.828125 43.125 -113.953125 C 50.382812 -117.085938 58.1875 -118.65625 66.53125 -118.65625 C 74.882812 -118.65625 82.710938 -117.085938 90.015625 -113.953125 C 97.316406 -110.828125 103.734375 -106.5 109.265625 -100.96875 C 114.796875 -95.4375 119.125 -89.046875 122.25 -81.796875 C 125.382812 -74.546875 126.953125 -66.742188 126.953125 -58.390625 C 126.953125 -50.046875 125.382812 -42.21875 122.25 -34.90625 C 119.125 -27.601562 114.796875 -21.1875 109.265625 -15.65625 C 103.734375 -10.125 97.34375 -5.789062 90.09375 -2.65625 C 82.84375 0.46875 75.039062 2.03125 66.6875 2.03125 Z M 66.53125 -95.5 C 59.957031 -95.5 53.984375 -93.828125 48.609375 -90.484375 C 43.234375 -87.140625 38.976562 -82.675781 35.84375 -77.09375 C 32.71875 -71.507812 31.15625 -65.273438 31.15625 -58.390625 C 31.15625 -51.503906 32.71875 -45.242188 35.84375 -39.609375 C 38.976562 -33.972656 43.234375 -29.507812 48.609375 -26.21875 C 53.984375 -22.9375 60.007812 -21.296875 66.6875 -21.296875 C 73.257812 -21.296875 79.234375 -22.9375 84.609375 -26.21875 C 89.984375 -29.507812 94.234375 -33.972656 97.359375 -39.609375 C 100.492188 -45.242188 102.0625 -51.503906 102.0625 -58.390625 C 102.0625 -65.273438 100.46875 -71.507812 97.28125 -77.09375 C 94.101562 -82.675781 89.828125 -87.140625 84.453125 -90.484375 C 79.078125 -93.828125 73.101562 -95.5 66.53125 -95.5 Z M 66.53125 -95.5 "/></g></g><g style="fill:#7ed957;fill-opacity:1;"><g transform="translate(1371.252941, 223.349414)"><path style="stroke:none" d="M 35.375 -116.625 L 35.375 0 L 11.109375 0 L 11.109375 -116.625 Z M 35.375 -116.625 "/></g></g><g style="fill:#7ed957;fill-opacity:1;"><g transform="translate(1467.836053, 223.349414)"><path style="stroke:none" d="M 11.109375 -116.625 L 58.390625 -116.625 C 66.847656 -116.625 74.753906 -115.160156 82.109375 -112.234375 C 89.460938 -109.316406 95.929688 -105.222656 101.515625 -99.953125 C 107.097656 -94.679688 111.476562 -88.523438 114.65625 -81.484375 C 117.84375 -74.441406 119.4375 -66.742188 119.4375 -58.390625 C 119.4375 -50.046875 117.84375 -42.320312 114.65625 -35.21875 C 111.476562 -28.125 107.097656 -21.941406 101.515625 -16.671875 C 95.929688 -11.398438 89.460938 -7.300781 82.109375 -4.375 C 74.753906 -1.457031 66.898438 0 58.546875 0 L 11.109375 0 Z M 35.375 -21.921875 L 58.546875 -21.921875 C 65.328125 -21.921875 71.429688 -23.507812 76.859375 -26.6875 C 82.285156 -29.875 86.585938 -34.207031 89.765625 -39.6875 C 92.953125 -45.164062 94.546875 -51.398438 94.546875 -58.390625 C 94.546875 -65.484375 92.953125 -71.742188 89.765625 -77.171875 C 86.585938 -82.597656 82.257812 -86.875 76.78125 -90 C 71.300781 -93.132812 65.171875 -94.703125 58.390625 -94.703125 L 35.375 -94.703125 Z M 35.375 -21.921875 "/></g></g></g></svg>